<?xml version="1.0" standalone="no"?>
<!DOCTYPE svg PUBLIC "-//W3C//DTD SVG 20010904//EN"
 "http://www.w3.org/TR/2001/REC-SVG-20010904/DTD/svg10.dtd">
<svg version="1.0" xmlns="http://www.w3.org/2000/svg"
 width="700.000000pt" height="700.000000pt" viewBox="0 0 700.000000 700.000000"
 preserveAspectRatio="xMidYMid meet">
<metadata>
Created by potrace 1.11, written by Peter Selinger 2001-2013
</metadata>
<g transform="translate(0.000000,700.000000) scale(0.100000,-0.100000)"
fill="#000000" stroke="none">
<path d="M3498 6905 c-2 -1 -43 -6 -93 -10 -49 -4 -97 -9 -105 -10 -69 -9
-146 -19 -150 -20 -3 -1 -27 -5 -55 -9 -54 -9 -275 -57 -340 -75 -22 -6 -43
-11 -47 -11 -26 -3 -323 -110 -423 -152 -883 -377 -1531 -1074 -1833 -1974
-29 -85 -86 -291 -96 -344 -2 -14 -11 -59 -20 -100 -20 -93 -44 -274 -54 -400
-14 -187 -7 -580 13 -740 2 -19 7 -57 10 -85 4 -27 8 -57 10 -65 2 -8 7 -35
10 -60 19 -141 84 -398 144 -571 129 -375 326 -720 580 -1019 90 -106 292
-302 408 -395 309 -248 680 -448 1063 -571 156 -50 414 -112 535 -128 22 -3
72 -10 110 -15 39 -6 104 -13 145 -17 99 -10 487 -11 618 -2 108 8 355 42 432
59 25 6 56 13 70 15 111 21 373 102 513 158 157 64 338 158 479 249 79 51 247
175 276 204 8 7 17 11 20 9 4 -2 7 -151 6 -330 l0 -326 220 2 220 3 1 1535 0
1535 49 45 c96 89 145 189 152 315 11 210 -129 398 -337 451 -233 60 -474 -86
-539 -325 -25 -92 -12 -197 34 -296 35 -73 74 -121 135 -167 l36 -27 0 -936 0
-936 -36 -37 c-188 -193 -522 -411 -824 -537 -221 -93 -520 -176 -715 -200
-25 -3 -56 -7 -70 -10 -127 -26 -620 -26 -770 -1 -14 3 -45 7 -70 10 -25 3
-56 8 -70 11 -14 3 -41 8 -60 11 -97 16 -384 94 -455 123 -11 5 -67 28 -125
52 -111 45 -344 162 -371 185 -8 8 -19 14 -23 14 -10 0 -181 116 -256 174
-381 295 -652 648 -858 1116 -62 142 -147 432 -177 605 -2 17 -7 41 -10 55 -3
14 -8 48 -11 75 -3 28 -7 60 -9 71 -20 94 -28 573 -12 724 13 131 29 238 43
300 3 14 8 36 10 50 21 116 98 368 158 513 46 111 138 296 182 365 19 29 34
55 34 57 0 10 175 255 215 301 367 425 773 705 1280 883 66 24 127 44 135 47
8 2 49 13 90 24 41 11 84 22 95 25 11 2 49 11 85 19 36 7 87 17 114 20 27 4
52 9 55 10 5 3 32 6 176 21 201 21 572 21 735 0 19 -2 75 -9 124 -15 561 -68
1086 -308 1505 -689 72 -65 79 -74 72 -99 -16 -60 -3 -173 30 -250 65 -152
219 -259 384 -267 289 -15 517 249 459 531 -48 238 -269 387 -517 349 l-47 -7
-91 86 c-323 308 -750 546 -1222 681 -131 37 -187 50 -337 80 -14 3 -56 10
-95 16 -38 6 -81 12 -95 15 -25 4 -50 6 -220 23 -77 8 -624 13 -632 6z m2910
-1202 c45 -34 65 -69 69 -125 4 -45 0 -59 -23 -95 -89 -134 -289 -77 -296 84
-2 61 42 127 102 152 37 16 117 7 148 -16z m-438 -1923 c42 -11 93 -62 107
-105 35 -108 -56 -220 -170 -209 -166 15 -197 254 -40 310 46 16 58 17 103 4z"/>
<path d="M3580 4898 c-19 -7 -20 -17 -20 -147 l0 -139 -52 -17 c-29 -9 -85
-32 -124 -51 -39 -19 -74 -34 -78 -34 -5 0 -46 38 -92 85 -46 46 -93 89 -105
96 -20 10 -35 -2 -186 -152 -90 -90 -169 -172 -174 -182 -8 -14 8 -35 89 -118
l100 -101 -31 -60 c-16 -34 -40 -91 -52 -127 l-23 -66 -134 -1 c-74 0 -140 -4
-146 -8 -16 -10 -17 -492 -1 -501 5 -4 70 -6 143 -6 l133 2 13 -33 c32 -87 66
-166 82 -193 l17 -29 -100 -102 c-84 -86 -99 -106 -90 -121 14 -25 335 -343
347 -343 6 0 53 43 105 95 51 52 98 95 103 95 4 0 42 -16 82 -35 41 -19 110
-44 153 -56 l78 -21 1 -274 c0 -194 -3 -276 -11 -283 -7 -5 -113 -11 -237 -13
-213 -3 -227 -4 -261 -26 -93 -57 -90 -191 6 -248 26 -16 57 -19 259 -20 180
-1 230 -4 237 -15 10 -18 9 -129 -3 -151 -8 -16 -30 -18 -221 -18 -230 0 -247
-1 -284 -25 -102 -67 -72 -232 47 -262 19 -5 125 -8 235 -7 110 0 207 -3 216
-7 12 -6 16 -28 17 -116 0 -59 3 -125 6 -147 24 -178 277 -213 357 -49 l24 48
-1 1010 c0 1079 2 1026 -45 1003 -32 -15 -196 -16 -266 -2 -287 60 -487 311
-485 609 1 267 183 503 447 581 73 21 231 26 298 8 26 -7 47 -11 48 -11 1 1 2
154 2 340 1 217 -2 341 -8 345 -14 9 -391 9 -415 0z"/>
<path d="M3702 3909 c-124 -54 -194 -166 -188 -301 8 -162 127 -279 291 -285
337 -10 443 444 135 580 -70 31 -174 34 -238 6z"/>
<path d="M4260 3179 c-59 -59 -80 -87 -80 -107 0 -21 63 -89 318 -344 234
-234 325 -320 347 -324 26 -5 49 16 305 274 153 153 282 288 288 299 16 29 -6
64 -89 145 -51 49 -78 68 -97 68 -20 0 -66 -40 -215 -188 l-189 -188 -223 223
c-269 269 -248 261 -365 142z"/>
</g>
</svg>
