<?xml version="1.0" encoding="UTF-8" standalone="no"?>
<!-- Created with Inkscape (http://www.inkscape.org/) -->

<svg
   xmlns:dc="http://purl.org/dc/elements/1.1/"
   xmlns:cc="http://creativecommons.org/ns#"
   xmlns:rdf="http://www.w3.org/1999/02/22-rdf-syntax-ns#"
   xmlns:svg="http://www.w3.org/2000/svg"
   xmlns="http://www.w3.org/2000/svg"
   xmlns:sodipodi="http://sodipodi.sourceforge.net/DTD/sodipodi-0.dtd"
   xmlns:inkscape="http://www.inkscape.org/namespaces/inkscape"
   version="1.1"
   id="svg4613"
   xml:space="preserve"
   width="1213.6918"
   height="362.28094"
   viewBox="0 0 1699.1685 507.19333"
   sodipodi:docname="gmasil-logo-full-aside-final.svg"
   inkscape:version="0.92.3 (2405546, 2018-03-11)"><metadata
     id="metadata4619"><rdf:RDF><cc:Work
         rdf:about=""><dc:format>image/svg+xml</dc:format><dc:type
           rdf:resource="http://purl.org/dc/dcmitype/StillImage" /><dc:title></dc:title></cc:Work></rdf:RDF></metadata><defs
     id="defs4617"><clipPath
       clipPathUnits="userSpaceOnUse"
       id="clipPath4629"><path
         d="M 0,1000 H 1000 V 0 H 0 Z"
         id="path4627"
         inkscape:connector-curvature="0" /></clipPath></defs><sodipodi:namedview
     pagecolor="#ffffff"
     bordercolor="#666666"
     borderopacity="1"
     objecttolerance="10"
     gridtolerance="10"
     guidetolerance="10"
     inkscape:pageopacity="0"
     inkscape:pageshadow="2"
     inkscape:window-width="1920"
     inkscape:window-height="1057"
     id="namedview4615"
     showgrid="false"
     inkscape:zoom="0.70800004"
     inkscape:cx="616.51349"
     inkscape:cy="12.686156"
     inkscape:window-x="-8"
     inkscape:window-y="101"
     inkscape:window-maximized="1"
     inkscape:current-layer="g4621"
     inkscape:object-paths="true"
     inkscape:snap-intersection-paths="true"
     inkscape:snap-smooth-nodes="true"
     inkscape:snap-midpoints="true"
     inkscape:snap-object-midpoints="true"
     inkscape:snap-center="true"
     inkscape:snap-text-baseline="true"
     inkscape:snap-page="true"
     inkscape:snap-bbox="true"
     inkscape:bbox-paths="true"
     inkscape:bbox-nodes="true"
     inkscape:snap-bbox-edge-midpoints="true"
     inkscape:snap-bbox-midpoints="true"
     inkscape:snap-global="false"
     scale-x="1.4"
     fit-margin-top="20"
     fit-margin-left="20"
     fit-margin-right="20"
     fit-margin-bottom="20"
     units="px" /><g
     id="g4621"
     inkscape:groupmode="layer"
     inkscape:label="gmasil logo - Final"
     transform="matrix(1.3333333,0,0,-1.3333333,-257.49329,1101.4513)"><g
       id="g857"
       transform="translate(499.6592,420.66401)"><path
         d="m 719.66428,179.22956 c -0.09,1.4 -0.191,2.789 -0.315,4.167 v 0.778 c 0.124,-1.637 0.225,-3.285 0.315,-4.945"
         style="fill:#00506a;fill-opacity:1;fill-rule:nonzero;stroke:none"
         id="path4633"
         inkscape:connector-curvature="0" /><path
         d="m 719.66428,179.22956 c -0.09,1.4 -0.191,2.789 -0.315,4.167 v 0.778 c 0.124,-1.637 0.225,-3.285 0.315,-4.945"
         style="fill:#00506a;fill-opacity:1;fill-rule:nonzero;stroke:none"
         id="path4637"
         inkscape:connector-curvature="0" /><path
         d="m 719.66428,179.22956 c -0.09,1.4 -0.191,2.789 -0.315,4.167 v 0.778 c 0.124,-1.637 0.225,-3.285 0.315,-4.945"
         style="fill:#00506a;fill-opacity:1;fill-rule:nonzero;stroke:none"
         id="path4641"
         inkscape:connector-curvature="0" /><path
         d="m 219.59298,137.74376 c -9.27,-7.644 -20.854,-11.122 -33.139,-11.122 -25.732,0 -48.675,17.151 -48.675,51.454 0,31.987 21.554,53.079 53.079,53.079 16.451,0 30.124,-5.804 41.946,-18.314 l 24.106,22.243 c -15.762,18.314 -39.406,28.047 -67.904,28.047 -51.69,0 -89.232996,-34.991 -89.232996,-85.281 0,-53.316 38.005996,-82.515 82.277996,-82.515 17.15,0 31.976,3.941 43.571,12.522 v -9.744 h 28.274 v 83.666 h -34.303 z"
         style="fill:#008faa;fill-opacity:1;fill-rule:nonzero;stroke:none"
         id="path4645"
         inkscape:connector-curvature="0" /><path
         d="m 496.77658,169.50546 v -71.393 h -36.153 v 65.827 c 0,20.165 -9.045,29.435 -23.644,29.435 -16.225,0 -27.573,-10.433 -27.573,-32.676 v -62.586 h -36.153 v 65.827 c 0,20.165 -8.581,29.435 -23.644,29.435 -15.988,0 -27.347,-10.433 -27.347,-32.676 v -62.586 h -36.154 v 62.349 c 0,0 0.124,4.833 1.626,11.799 0,0 0.339,28.736 23.733,43.967 0,0 0.26,0.17 0.746,0.463 1.479,0.892 5.092,2.925 10.332,4.957 0.213,0.079 0.44,0.17 0.666,0.248 12.487,4.72 33.669,9.18 57.256,-0.959 1.592,-0.678 3.206,-1.434 4.822,-2.259 6.221,-3.364 11.506,-8.163 15.536,-14.418 9.97,12.747 26.195,20.403 44.961,20.403 29.673,0 50.99,-17.152 50.99,-55.157"
         style="fill:#008faa;fill-opacity:1;fill-rule:nonzero;stroke:none"
         id="path4649"
         inkscape:connector-curvature="0" /><path
         d="m 312.21308,216.69056 c 3.049,1.931 6.481,3.602 10.332,4.957 -5.239,-2.032 -8.853,-4.065 -10.332,-4.957"
         style="fill:#008faa;fill-opacity:1;fill-rule:nonzero;stroke:none"
         id="path4653"
         inkscape:connector-curvature="0" /><path
         d="m 385.28928,218.67786 c -1.615,0.824 -3.229,1.581 -4.821,2.258 1.671,-0.654 3.274,-1.411 4.821,-2.258"
         style="fill:#008faa;fill-opacity:1;fill-rule:nonzero;stroke:none"
         id="path4657"
         inkscape:connector-curvature="0" /><path
         d="m 831.65748,280.51916 c -13.447,0 -22.48,-8.818 -22.48,-20.166 0,-11.359 9.033,-20.166 22.48,-20.166 13.437,0 22.48,8.807 22.48,20.855 0,11.133 -9.043,19.477 -22.48,19.477"
         style="fill:#008faa;fill-opacity:1;fill-rule:nonzero;stroke:none"
         id="path4661"
         inkscape:connector-curvature="0" /><path
         d="m 945.21118,127.32236 c -2.077,-1.163 -6.255,-2.315 -10.195,-2.315 -9.959,0 -15.526,5.793 -15.526,16.451 v 128.628 h -36.154 v -130.717 c 0,-27.81 16.688,-43.109 44.735,-43.109 6.256,0 12.511,0.926 18.766,3.015 z"
         style="fill:#008faa;fill-opacity:1;fill-rule:nonzero;stroke:none"
         id="path4665"
         inkscape:connector-curvature="0" /><path
         d="m 627.16528,210.08556 c 0,0 0.034,-0.023 0.091,-0.068 -0.034,0.023 -0.057,0.045 -0.091,0.057 z"
         style="fill:#008faa;fill-opacity:1;fill-rule:nonzero;stroke:none"
         id="path4669"
         inkscape:connector-curvature="0" /><path
         d="m 627.25608,210.01766 c -0.034,0.022 -0.057,0.045 -0.091,0.057 v 0.011 c 0,0 0.034,-0.023 0.091,-0.068"
         style="fill:#008faa;fill-opacity:1;fill-rule:nonzero;stroke:none"
         id="path4673"
         inkscape:connector-curvature="0" /><path
         d="m 627.25608,210.01766 c -0.034,0.022 -0.057,0.045 -0.091,0.057 v 0.011 c 0,0 0.034,-0.023 0.091,-0.068"
         style="fill:#008faa;fill-opacity:1;fill-rule:nonzero;stroke:none"
         id="path4677"
         inkscape:connector-curvature="0" /><path
         d="m 548.73848,214.80526 c 0.395,0.248 0.847,0.519 1.332,0.801 0.294,0.181 0.587,0.35 0.903,0.531 0.35,0.203 0.723,0.407 1.119,0.621 0.451,0.26 0.936,0.52 1.445,0.779 1.106,0.587 2.337,1.186 3.669,1.807 -2.97,-1.276 -5.792,-2.8 -8.468,-4.539"
         style="fill:#008faa;fill-opacity:1;fill-rule:nonzero;stroke:none"
         id="path4681"
         inkscape:connector-curvature="0" /><path
         d="m 657.15448,128.58706 v 0.779 c 0.124,-1.637 0.226,-3.286 0.316,-4.946 -0.09,1.4 -0.192,2.789 -0.316,4.167 m -67.216,-2.654 c -18.076,0 -31.987,12.974 -31.987,34.529 0,21.554 13.911,34.527 31.987,34.527 7.216,0 13.776,-2.111 19.049,-6.074 2.167,-1.615 4.121,-3.557 5.792,-5.781 4.347,-5.736 6.91,-13.414 6.91,-22.672 0,-21.555 -13.899,-34.529 -31.751,-34.529 m 151.594,97.306 c -5.386,0.384 -10.241,0.328 -14.543,0 -10.128,-0.79 -17.185,-3.082 -20.944,-4.617 h -0.012 c -0.316,-0.136 -0.621,-0.271 -0.926,-0.407 -0.136,-0.057 -0.27,-0.124 -0.395,-0.181 -0.147,-0.068 -0.293,-0.135 -0.441,-0.203 -0.18,-0.09 -0.36,-0.169 -0.53,-0.26 -0.181,-0.079 -0.327,-0.158 -0.441,-0.214 -0.124,-0.057 -0.214,-0.113 -0.282,-0.147 -0.045,-0.022 -0.079,-0.045 -0.113,-0.068 h -0.011 c -13.843,-7.091 -21.419,-18.709 -21.419,-32.811 0,-49.827 75.323,-28.973 75.323,-49.365 0,-6.323 -5.171,-10.546 -18.665,-11.246 v -0.011 c -1.343,-0.068 -2.766,-0.101 -4.279,-0.101 -1.354,0 -2.721,0.033 -4.088,0.112 h -71.257 c 0.034,5.759 -0.135,11.179 -0.497,16.293 0,0.068 0,0.147 -0.011,0.215 -0.147,2.123 -0.327,4.177 -0.531,6.187 v 0.012 c -0.056,2.021 -0.135,3.985 -0.259,5.905 -6.289,63.568 -43.12,74.069 -65.895,74.318 -0.294,0.011 -0.587,0.011 -0.869,0.011 -13.245,0.214 -24.693,-3.467 -32.586,-7.023 -0.226,-0.102 -0.44,-0.204 -0.655,-0.294 -1.332,-0.621 -2.563,-1.219 -3.669,-1.806 -0.509,-0.26 -0.994,-0.531 -1.446,-0.78 -0.395,-0.214 -0.768,-0.418 -1.118,-0.621 -0.316,-0.18 -0.621,-0.361 -0.903,-0.53 -0.485,-0.283 -0.937,-0.554 -1.332,-0.802 -0.079,-0.045 -0.158,-0.101 -0.227,-0.135 -0.282,-0.181 -0.542,-0.351 -0.767,-0.497 -0.079,-0.057 -0.169,-0.113 -0.248,-0.169 -0.158,-0.102 -0.305,-0.192 -0.43,-0.283 -0.011,-0.011 -0.022,-0.022 -0.033,-0.022 -0.113,-0.079 -0.215,-0.147 -0.294,-0.204 -0.09,-0.068 -0.158,-0.113 -0.203,-0.146 -0.057,-0.046 -0.09,-0.068 -0.113,-0.079 l -0.011,-0.012 c -15.356,-10.975 -25.077,-29.357 -25.077,-52.796 0,-39.169 27.121,-64.202 62.348,-64.202 16.689,0 29.899,5.33 38.932,16.226 v -14.374 h 130.072 c 24.773,4.912 38.65,19.184 38.65,37.78 0,49.139 -75.323,28.51 -75.323,49.827 0,5.454 4.901,9.914 16.056,11.212 h 81.51 v -98.819 h 36.154 v 125.127 z"
         style="fill:#008faa;fill-opacity:1;fill-rule:nonzero;stroke:none"
         id="path4685"
         inkscape:connector-curvature="0" /><path
         d="m 614.77948,183.13386 -5.792,5.781 c 2.167,-1.614 4.121,-3.557 5.792,-5.781"
         style="fill:#008faa;fill-opacity:1;fill-rule:nonzero;stroke:none"
         id="path4689"
         inkscape:connector-curvature="0" /><path
         d="m 657.47088,146.41516 v 0.012 c -0.057,2.021 -0.136,3.985 -0.26,5.905 0.384,-3.839 0.644,-7.87 0.79,-12.104 -0.146,2.123 -0.327,4.177 -0.53,6.187"
         style="fill:#008faa;fill-opacity:1;fill-rule:nonzero;stroke:none"
         id="path4693"
         inkscape:connector-curvature="0" /></g><g
       id="g870"
       transform="translate(-97.58813,27.542372)"><path
         inkscape:export-ydpi="159.97701"
         inkscape:export-xdpi="159.97701"
         d="m 613.0311,702.4625 c -4.47,0 -8.101,3.631 -8.101,8.102 0,4.47 3.631,8.101 8.101,8.101 4.471,0 8.102,-3.631 8.102,-8.101 0,-4.471 -3.631,-8.102 -8.102,-8.102 m 0,30.306 c -2.223,0 -4.347,-0.322 -6.372,-0.939 -7.558,-2.272 -13.437,-8.496 -15.239,-16.227 -0.37,-1.63 -0.569,-3.309 -0.569,-5.038 0,-12.251 9.954,-22.205 22.18,-22.205 12.251,0 22.204,9.954 22.204,22.205 0,12.226 -9.953,22.204 -22.204,22.204"
         style="fill:#00506a;fill-opacity:1;fill-rule:nonzero;stroke:none"
         id="path4697"
         inkscape:connector-curvature="0" /><path
         sodipodi:nodetypes="csssccccsccsssccssscccccsc"
         inkscape:export-ydpi="159.97701"
         inkscape:export-xdpi="159.97701"
         d="m 593.3221,605.6691 c -4.471,0 -8.126,3.63 -8.126,8.101 0,4.47 3.655,8.101 8.126,8.101 4.47,0 8.076,-3.631 8.076,-8.101 0,-4.471 -3.606,-8.101 -8.076,-8.101 m 0,30.305 c -2.248,0 -4.372,-0.321 -6.397,-0.938 -7.558,-2.273 -13.436,-8.497 -15.214,-16.227 -0.396,-1.63 -0.593,-3.31 -0.593,-5.039 0,-8.101 4.347,-15.165 10.817,-19.043 v -93.607 c -28.106,-27.638 -65.278,-40.037 -101.51,-40.037 -73.874,0 -144.414,53.374 -144.414,146.784 0,84.345 64.34,147.278 151.082,147.278 40.481,0 75.256,-10.966 104.327,-39.543 4.33006,4.26663 10.95811,10.16292 15.239,16.227 -29.54,30.479 -71.922,45.717 -120.035,45.717 -101.042,0 -174.916,-71.971 -174.916,-169.679 0,-108.649 81.506,-168.716 167.284,-168.716 39.073,0 76.244,11.435 104.376,35.739 v -33.344 h 21.933 v 153.577 c 0.864,0.518 1.704,1.136 2.469,1.802 4.718,4.076 7.731,10.127 7.731,16.845 0,12.226 -9.953,22.204 -22.179,22.204"
         style="fill:#00506a;fill-opacity:1;fill-rule:nonzero;stroke:none"
         id="path4701"
         inkscape:connector-curvature="0" /><path
         inkscape:export-ydpi="159.97701"
         inkscape:export-xdpi="159.97701"
         d="m 473.1668,613.798 c 0.082,8.702 6.779,15.304 15.43,15.212 8.567,-0.092 15.206,-6.953 15.103,-15.609 -0.098,-8.397 -7.006,-14.973 -15.61,-14.865 -8.463,0.107 -15.003,6.796 -14.923,15.262"
         style="fill:#00506a;fill-opacity:1;fill-rule:nonzero;stroke:none"
         id="path4709"
         inkscape:connector-curvature="0" /><path
         inkscape:export-ydpi="159.97701"
         inkscape:export-xdpi="159.97701"
         d="m 495.0711,544.1085 c -1.161,-0.741 -2.347,-1.432 -3.557,-2.05 0.198,0.198 0.37,0.42 0.568,0.618 1.012,0.444 2.001,0.913 2.989,1.432"
         style="fill:#00506a;fill-opacity:1;fill-rule:nonzero;stroke:none"
         id="path4717"
         inkscape:connector-curvature="0" /><path
         inkscape:export-ydpi="159.97701"
         inkscape:export-xdpi="159.97701"
         d="m 449.699,521.7565 v 7.73"
         style="fill:#00506a;fill-opacity:1;fill-rule:nonzero;stroke:none"
         id="path4721"
         inkscape:connector-curvature="0" /><path
         inkscape:export-ydpi="159.97701"
         inkscape:export-xdpi="159.97701"
         d="m 479.5994,558.4918 v 16.735"
         style="fill:#00506a;fill-opacity:1;fill-rule:nonzero;stroke:none"
         id="path4725"
         inkscape:connector-curvature="0" /><path
         inkscape:export-ydpi="159.97701"
         inkscape:export-xdpi="159.97701"
         d="m 476.4725,496.4156 v 30.676"
         style="fill:#00506a;fill-opacity:1;fill-rule:nonzero;stroke:none"
         id="path4729"
         inkscape:connector-curvature="0" /><path
         inkscape:export-ydpi="159.97701"
         inkscape:export-xdpi="159.97701"
         d="m 497.6785,533.046 v 1.083 c 0,5.323 0,10.629 -0.018,15.953 v 34.587 c -2.644,-0.852 -5.43,-1.331 -8.323,-1.419 -17.09,-0.497 -30.913,12.972 -31.446,29.618 -0.443,17.053 12.973,30.967 29.636,31.446 3.549,0.106 6.957,-0.409 10.133,-1.402 v 34.551 h -20.142 c -1.419,0 -1.934,-0.497 -1.934,-1.917 v -11.978 c 0,-0.444 -0.017,-0.763 -0.568,-0.905 -4.046,-1.047 -7.879,-2.68 -11.517,-4.756 -0.497,-0.284 -0.763,-0.231 -1.153,0.16 -2.786,2.804 -5.572,5.589 -8.358,8.376 -1.119,1.118 -1.846,1.1 -2.982,-0.018 l -15.279,-15.279 c -1.066,-1.065 -1.048,-1.828 0.035,-2.911 2.769,-2.768 5.537,-5.554 8.323,-8.305 0.426,-0.426 0.515,-0.727 0.196,-1.277 -2.024,-3.514 -3.603,-7.241 -4.65,-11.163 -0.195,-0.727 -0.497,-0.887 -1.207,-0.887 -3.939,0.036 -7.879,0.018 -11.819,0.018 -1.331,0 -1.864,-0.533 -1.864,-1.846 v -21.987 c 0,-1.349 0.533,-1.863 1.9,-1.863 4.011,0 8.003,0 11.996,0.017 0.55,0 0.78,-0.142 0.94,-0.709 1.065,-3.976 2.645,-7.738 4.685,-11.305 0.302,-0.532 0.302,-0.851 -0.159,-1.295 -2.822,-2.769 -5.59,-5.572 -8.376,-8.358 -1.066,-1.047 -1.066,-1.811 -0.019,-2.857 l 15.333,-15.333 c 1.101,-1.083 1.828,-1.083 2.91,0 2.787,2.786 5.59,5.572 8.359,8.376 0.426,0.426 0.71,0.461 1.224,0.16 3.568,-2.041 7.33,-3.62 11.305,-4.685 1.94286,-0.46816 3.602,-0.72176 3.602,-0.72176 V 557.891 c 0.018,-0.018 0.018,-0.053 0.018,-0.072 0,-1.827 -0.018,-3.655 -0.018,-5.483 v -3.354 c -0.018,-3.709 -0.035,-7.418 0.018,-11.109 0.018,-1.65 -0.551,-2.218 -2.218,-2.201 -6.318,0.072 -12.618,0.107 -18.935,-0.035 -1.474,-0.035 -3.106,-0.479 -4.384,-1.242 -2.75,-1.615 -3.886,-4.951 -3.052,-7.951 0.887,-3.211 3.603,-5.394 7.028,-5.43 6.388,-0.053 12.759,-0.089 19.147,0.018 1.917,0.035 2.521,-0.674 2.414,-2.466 -0.089,-1.42 -0.106,-2.84 0,-4.242 0.142,-1.881 -0.621,-2.467 -2.467,-2.431 -6.158,0.089 -12.334,0.035 -18.491,0 -1.048,0 -2.165,-0.089 -3.124,-0.444 -3.353,-1.224 -5.234,-4.613 -4.667,-8.181 0.532,-3.354 3.603,-5.998 7.205,-6.034 6.46,-0.07 12.902,-0.088 19.361,0.019 1.756,0.017 2.218,-0.657 2.183,-2.219 -0.053,-2.981 -0.089,-5.963 0.018,-8.926 0.053,-1.473 0.195,-3.017 0.727,-4.366 1.775,-4.347 6.459,-6.672 10.95,-5.643 4.684,1.065 7.613,5.182 7.595,10.169 -0.053,15.581 -0.053,31.179 -0.071,46.778"
         style="fill:#00506a;fill-opacity:1;fill-rule:nonzero;stroke:none"
         id="path4733"
         inkscape:connector-curvature="0"
         sodipodi:nodetypes="cscccccccssscccccccccccsssscccccccccccccsscccccccccccccccccccccc" /><path
         inkscape:export-ydpi="159.97701"
         inkscape:export-xdpi="159.97701"
         d="m 496.535,613.7731 c 0,-4.474 -3.627,-8.101 -8.102,-8.101 -4.473,0 -8.1,3.627 -8.1,8.101 0,4.474 3.627,8.101 8.1,8.101 4.475,0 8.102,-3.627 8.102,-8.101"
         style="fill:#00506a;fill-opacity:1;fill-rule:nonzero;stroke:none"
         id="path4737"
         inkscape:connector-curvature="0" /><path
         inkscape:export-ydpi="159.97701"
         inkscape:export-xdpi="159.97701"
         d="m 507.41,584.0035 30.149,-30.149 c 1.242,-1.241 3.253,-1.241 4.495,0 l 6.328,6.329 c 1.241,1.24 1.241,3.253 0,4.494 l -30.149,30.149 c -1.241,1.241 -3.254,1.241 -4.495,0 l -6.328,-6.329 c -1.241,-1.241 -1.241,-3.253 0,-4.494"
         style="fill:#00506a;fill-opacity:1;fill-rule:nonzero;stroke:none"
         id="path4741"
         inkscape:connector-curvature="0" /><path
         inkscape:export-ydpi="159.97701"
         inkscape:export-xdpi="159.97701"
         d="m 542.0535,553.8546 26.47,26.47 c 1.241,1.241 1.241,3.253 0,4.494 l -6.328,6.328 c -1.242,1.242 -3.254,1.242 -4.496,0 l -26.469,-26.469 c -1.241,-1.241 -1.241,-3.254 0,-4.494 l 6.329,-6.329 c 1.241,-1.241 3.253,-1.241 4.494,0"
         style="fill:#00506a;fill-opacity:1;fill-rule:nonzero;stroke:none"
         id="path4745"
         inkscape:connector-curvature="0" /></g></g></svg>